<svg version="1.1" id="logo_svg_blue" xmlns="http://www.w3.org/2000/svg"
     xmlns:xlink="http://www.w3.org/1999/xlink" x="0px" y="0px" viewBox="0 0 99.8 39.8"
     enable-background="new 0 0 99.8 39.8" xml:space="preserve" fill="#000000"> <g>
    <path d="M1,10.8c-0.1,0-0.1,0-0.2-0.1s-0.1-0.1-0.1-0.2V2.7c0-0.1,0-0.2,0.1-0.2S1,2.4,1,2.4h1.3 c0.1,0,0.2,0,0.3,0.1s0.1,0.1,0.1,0.2l2.1,3.8L7,2.7c0,0,0.1-0.1,0.1-0.2s0.2-0.1,0.3-0.1h1.3c0.1,0,0.2,0,0.2,0.1S9,2.6,9,2.7v7.8 c0,0.1,0,0.1-0.1,0.2s-0.1,0.1-0.2,0.1H7.2c-0.1,0-0.2,0-0.2-0.1c-0.1-0.1-0.1-0.1-0.1-0.2V6L5.6,8.5c0,0.1-0.1,0.1-0.2,0.2 C5.4,8.8,5.3,8.8,5.2,8.8H4.5c-0.1,0-0.2,0-0.3-0.1C4.2,8.7,4.2,8.6,4.1,8.5L2.8,6v4.5c0,0.1,0,0.1-0.1,0.2s-0.1,0.1-0.2,0.1H1z"></path>
    <path d="M14.1,11c-0.7,0-1.4-0.1-1.9-0.4c-0.5-0.2-1-0.6-1.3-1.1c-0.3-0.5-0.5-1.1-0.5-1.8c0-0.3,0-0.7,0-1 c0-0.3,0-0.7,0-1c0-0.7,0.2-1.3,0.5-1.8c0.3-0.5,0.7-0.9,1.3-1.1c0.5-0.2,1.2-0.4,1.9-0.4c0.7,0,1.4,0.1,1.9,0.4 c0.5,0.2,1,0.6,1.3,1.1c0.3,0.5,0.5,1.1,0.5,1.8c0,0.3,0,0.7,0,1c0,0.3,0,0.7,0,1c0,0.7-0.2,1.3-0.5,1.8C17,10,16.6,10.4,16,10.6 C15.5,10.8,14.8,11,14.1,11z M14.1,9.2c0.4,0,0.8-0.1,1-0.4c0.3-0.3,0.4-0.7,0.4-1.2c0-0.4,0-0.7,0-1s0-0.6,0-1 c0-0.4-0.1-0.7-0.2-0.9c-0.1-0.2-0.3-0.4-0.5-0.5C14.6,4.1,14.4,4,14.1,4c-0.3,0-0.5,0.1-0.7,0.2c-0.2,0.1-0.4,0.3-0.5,0.5 c-0.1,0.2-0.2,0.5-0.2,0.9c0,0.3,0,0.7,0,1s0,0.6,0,1c0,0.6,0.2,1,0.4,1.2C13.3,9.1,13.7,9.2,14.1,9.2z"></path>
    <path d="M22.7,11c-0.8,0-1.4-0.1-1.9-0.4s-1-0.6-1.3-1.1C19.1,9,19,8.4,18.9,7.7c0-0.3,0-0.7,0-1.1s0-0.7,0-1.1 c0-0.7,0.2-1.3,0.5-1.8c0.3-0.5,0.7-0.9,1.3-1.1s1.2-0.4,1.9-0.4c0.5,0,1,0.1,1.5,0.2c0.4,0.1,0.8,0.3,1.2,0.6s0.6,0.6,0.8,0.9 s0.3,0.8,0.3,1.2c0,0.1,0,0.1-0.1,0.2c-0.1,0-0.1,0.1-0.2,0.1h-1.6c-0.1,0-0.2,0-0.2-0.1c-0.1,0-0.1-0.1-0.1-0.2 c-0.1-0.4-0.3-0.7-0.5-0.9C23.3,4.1,23,4,22.6,4c-0.4,0-0.8,0.1-1,0.4c-0.3,0.2-0.4,0.6-0.4,1.2c0,0.7,0,1.3,0,2 c0,0.6,0.2,1,0.4,1.2c0.3,0.2,0.6,0.4,1,0.4c0.4,0,0.7-0.1,0.9-0.2c0.3-0.2,0.4-0.4,0.5-0.9c0-0.1,0.1-0.2,0.1-0.2 c0.1,0,0.1-0.1,0.2-0.1h1.6c0.1,0,0.1,0,0.2,0.1c0.1,0,0.1,0.1,0.1,0.2c0,0.4-0.1,0.9-0.3,1.2s-0.5,0.7-0.8,0.9s-0.7,0.4-1.2,0.6 C23.7,10.9,23.2,11,22.7,11z"></path>
    <path d="M27.9,10.8c-0.1,0-0.2,0-0.2-0.1c-0.1-0.1-0.1-0.1-0.1-0.2V2.7c0-0.1,0-0.2,0.1-0.2 c0.1-0.1,0.1-0.1,0.2-0.1h1.5c0.1,0,0.2,0,0.2,0.1s0.1,0.1,0.1,0.2v2.9h0.7l1.8-3c0-0.1,0.1-0.1,0.2-0.2c0.1,0,0.2-0.1,0.3-0.1h1.7 c0.1,0,0.1,0,0.2,0.1c0,0.1,0.1,0.1,0.1,0.2c0,0,0,0.1,0,0.1l-2.2,3.6l2.4,3.9c0,0,0,0.1,0,0.1c0,0.1,0,0.1-0.1,0.2 c-0.1,0.1-0.1,0.1-0.2,0.1h-1.8c-0.1,0-0.2,0-0.3-0.1c-0.1-0.1-0.1-0.1-0.1-0.1l-1.9-3.1h-0.8v3c0,0.1,0,0.1-0.1,0.2 s-0.1,0.1-0.2,0.1H27.9z"></path>
    <path d="M39.1,11c-0.7,0-1.4-0.1-1.9-0.4c-0.5-0.2-1-0.6-1.3-1.1c-0.3-0.5-0.5-1.1-0.5-1.8c0-0.3,0-0.7,0-1 c0-0.3,0-0.7,0-1c0-0.7,0.2-1.3,0.5-1.8c0.3-0.5,0.7-0.9,1.3-1.1c0.5-0.2,1.2-0.4,1.9-0.4c0.7,0,1.4,0.1,1.9,0.4 c0.5,0.2,1,0.6,1.3,1.1c0.3,0.5,0.5,1.1,0.5,1.8c0,0.3,0,0.7,0,1c0,0.3,0,0.7,0,1c0,0.7-0.2,1.3-0.5,1.8c-0.3,0.5-0.7,0.8-1.3,1.1 C40.4,10.8,39.8,11,39.1,11z M39.1,9.2c0.4,0,0.8-0.1,1-0.4c0.3-0.3,0.4-0.7,0.4-1.2c0-0.4,0-0.7,0-1s0-0.6,0-1 c0-0.4-0.1-0.7-0.2-0.9c-0.1-0.2-0.3-0.4-0.5-0.5C39.6,4.1,39.3,4,39.1,4c-0.3,0-0.5,0.1-0.7,0.2c-0.2,0.1-0.4,0.3-0.5,0.5 c-0.1,0.2-0.2,0.5-0.2,0.9c0,0.3,0,0.7,0,1s0,0.6,0,1c0,0.6,0.2,1,0.4,1.2C38.3,9.1,38.6,9.2,39.1,9.2z"></path>
    <path d="M44.5,10.8c-0.1,0-0.2,0-0.2-0.1c-0.1-0.1-0.1-0.1-0.1-0.2V2.7c0-0.1,0-0.2,0.1-0.2 c0.1-0.1,0.1-0.1,0.2-0.1h3.7c0.7,0,1.3,0.1,1.7,0.3c0.4,0.2,0.8,0.5,1,0.8c0.2,0.4,0.3,0.8,0.3,1.3c0,0.3-0.1,0.5-0.2,0.8 c-0.1,0.2-0.2,0.4-0.4,0.5c-0.2,0.1-0.3,0.2-0.4,0.3c0.3,0.1,0.6,0.4,0.8,0.7c0.2,0.3,0.4,0.7,0.4,1.2c0,0.5-0.1,1-0.4,1.4 c-0.2,0.4-0.6,0.7-1,0.9c-0.5,0.2-1,0.3-1.7,0.3H44.5z M46.3,5.8h1.6c0.3,0,0.6-0.1,0.7-0.3c0.2-0.2,0.2-0.4,0.2-0.6 s-0.1-0.5-0.2-0.6C48.5,4.1,48.2,4,47.9,4h-1.6V5.8z M46.3,9.3H48c0.3,0,0.6-0.1,0.8-0.3C49,8.8,49,8.5,49,8.3 C49,8,49,7.8,48.8,7.6c-0.2-0.2-0.4-0.3-0.8-0.3h-1.7V9.3z"></path>
    <path d="M56.1,11c-0.8,0-1.4-0.1-1.9-0.4s-1-0.6-1.3-1.1c-0.3-0.5-0.5-1.1-0.5-1.8c0-0.3,0-0.7,0-1.1s0-0.7,0-1.1 c0-0.7,0.2-1.3,0.5-1.8c0.3-0.5,0.7-0.9,1.3-1.1s1.2-0.4,1.9-0.4c0.5,0,1,0.1,1.5,0.2c0.4,0.1,0.8,0.3,1.2,0.6s0.6,0.6,0.8,0.9 s0.3,0.8,0.3,1.2c0,0.1,0,0.1-0.1,0.2c-0.1,0-0.1,0.1-0.2,0.1h-1.6c-0.1,0-0.2,0-0.2-0.1c-0.1,0-0.1-0.1-0.1-0.2 c-0.1-0.4-0.3-0.7-0.5-0.9C56.7,4.1,56.4,4,56.1,4c-0.4,0-0.8,0.1-1,0.4c-0.3,0.2-0.4,0.6-0.4,1.2c0,0.7,0,1.3,0,2 c0,0.6,0.2,1,0.4,1.2c0.3,0.2,0.6,0.4,1,0.4c0.4,0,0.7-0.1,0.9-0.2c0.3-0.2,0.4-0.4,0.5-0.9c0-0.1,0.1-0.2,0.1-0.2 c0.1,0,0.1-0.1,0.2-0.1h1.6c0.1,0,0.1,0,0.2,0.1c0.1,0,0.1,0.1,0.1,0.2c0,0.4-0.1,0.9-0.3,1.2s-0.5,0.7-0.8,0.9s-0.7,0.4-1.2,0.6 C57.1,10.9,56.6,11,56.1,11z"></path>
    <path d="M61.3,10.8c-0.1,0-0.2,0-0.2-0.1c-0.1-0.1-0.1-0.1-0.1-0.2V2.7c0-0.1,0-0.2,0.1-0.2 c0.1-0.1,0.1-0.1,0.2-0.1h1.5c0.1,0,0.2,0,0.2,0.1s0.1,0.1,0.1,0.2v2.9h0.7l1.8-3c0-0.1,0.1-0.1,0.2-0.2c0.1,0,0.2-0.1,0.3-0.1h1.7 c0.1,0,0.1,0,0.2,0.1c0,0.1,0.1,0.1,0.1,0.2c0,0,0,0.1,0,0.1l-2.2,3.6l2.4,3.9c0,0,0,0.1,0,0.1c0,0.1,0,0.1-0.1,0.2 c-0.1,0.1-0.1,0.1-0.2,0.1h-1.8c-0.1,0-0.2,0-0.3-0.1c-0.1-0.1-0.1-0.1-0.1-0.1L64,7.5h-0.8v3c0,0.1,0,0.1-0.1,0.2 s-0.1,0.1-0.2,0.1H61.3z"></path>
    <path d="M69.8,10.8c-0.1,0-0.2,0-0.2-0.1c-0.1-0.1-0.1-0.1-0.1-0.2V2.7c0-0.1,0-0.2,0.1-0.2s0.1-0.1,0.2-0.1h1.5 c0.1,0,0.2,0,0.2,0.1s0.1,0.1,0.1,0.2v4.8L75,2.7c0-0.1,0.1-0.1,0.2-0.2s0.1-0.1,0.3-0.1h1.4c0.1,0,0.1,0,0.2,0.1s0.1,0.1,0.1,0.2 v7.8c0,0.1,0,0.1-0.1,0.2s-0.1,0.1-0.2,0.1h-1.5c-0.1,0-0.2,0-0.2-0.1S75,10.6,75,10.5V5.9l-3.4,4.7c0,0-0.1,0.1-0.1,0.1 c-0.1,0.1-0.1,0.1-0.3,0.1H69.8z"></path>
    <path d="M79.1,10.8c-0.1,0-0.2,0-0.2-0.1c-0.1-0.1-0.1-0.1-0.1-0.2V2.7c0-0.1,0-0.2,0.1-0.2s0.1-0.1,0.2-0.1h1.5 c0.1,0,0.2,0,0.2,0.1S81,2.6,81,2.7v4.8l3.4-4.9c0-0.1,0.1-0.1,0.2-0.2s0.1-0.1,0.3-0.1h1.4c0.1,0,0.1,0,0.2,0.1s0.1,0.1,0.1,0.2 v7.8c0,0.1,0,0.1-0.1,0.2s-0.1,0.1-0.2,0.1h-1.5c-0.1,0-0.2,0-0.2-0.1s-0.1-0.1-0.1-0.2V5.9l-3.4,4.7c0,0-0.1,0.1-0.1,0.1 c-0.1,0.1-0.1,0.1-0.3,0.1H79.1z M82.7,1.9c-0.5,0-0.9-0.1-1.2-0.2c-0.3-0.2-0.5-0.4-0.7-0.6c-0.1-0.3-0.2-0.5-0.2-0.9 c0-0.1,0-0.1,0.1-0.2S80.7,0,80.8,0h1c0.1,0,0.1,0,0.2,0.1c0,0,0.1,0.1,0.1,0.2c0,0.1,0,0.2,0.1,0.3s0.1,0.2,0.2,0.2 s0.2,0.1,0.4,0.1c0.2,0,0.3,0,0.4-0.1c0.1-0.1,0.2-0.1,0.2-0.2s0.1-0.2,0.1-0.3c0-0.1,0-0.1,0.1-0.2S83.6,0,83.6,0h1 c0.1,0,0.1,0,0.2,0.1s0.1,0.1,0.1,0.2c0,0.3-0.1,0.6-0.2,0.9c-0.1,0.3-0.4,0.5-0.7,0.6C83.6,1.9,83.2,1.9,82.7,1.9z"></path>
    <path d="M0.3,25.2c-0.1,0-0.1,0-0.2-0.1C0,25.1,0,25,0,25c0,0,0-0.1,0-0.1l2.8-7.7c0-0.1,0.1-0.2,0.1-0.2 s0.2-0.1,0.3-0.1h1.8c0.1,0,0.2,0,0.3,0.1s0.1,0.1,0.1,0.2l2.8,7.7c0,0,0,0.1,0,0.1c0,0.1,0,0.1-0.1,0.2c-0.1,0.1-0.1,0.1-0.2,0.1 H6.6c-0.1,0-0.2,0-0.3-0.1S6.3,25,6.3,25l-0.5-1.2H2.6L2.1,25c0,0-0.1,0.1-0.1,0.2c-0.1,0.1-0.2,0.1-0.3,0.1H0.3z M3.1,22h2.2 l-1.1-3.2L3.1,22z"></path>
    <path d="M9.6,25.2c-0.1,0-0.2,0-0.2-0.1c-0.1-0.1-0.1-0.1-0.1-0.2v-7.8c0-0.1,0-0.2,0.1-0.2 c0.1-0.1,0.1-0.1,0.2-0.1h3.7c0.7,0,1.3,0.1,1.7,0.3c0.4,0.2,0.8,0.5,1,0.8c0.2,0.4,0.3,0.8,0.3,1.3c0,0.3-0.1,0.5-0.2,0.8 c-0.1,0.2-0.2,0.4-0.4,0.5c-0.2,0.1-0.3,0.2-0.4,0.3c0.3,0.1,0.6,0.4,0.8,0.7c0.2,0.3,0.4,0.7,0.4,1.2c0,0.5-0.1,1-0.4,1.4 c-0.2,0.4-0.6,0.7-1,0.9c-0.5,0.2-1,0.3-1.7,0.3H9.6z M11.5,20.2H13c0.3,0,0.6-0.1,0.7-0.3c0.2-0.2,0.2-0.4,0.2-0.6 s-0.1-0.5-0.2-0.6c-0.2-0.2-0.4-0.2-0.7-0.2h-1.6V20.2z M11.5,23.7h1.7c0.3,0,0.6-0.1,0.8-0.3c0.2-0.2,0.3-0.4,0.3-0.7 c0-0.3-0.1-0.5-0.3-0.7c-0.2-0.2-0.4-0.3-0.8-0.3h-1.7V23.7z"></path>
    <path d="M18.1,25.2c-0.1,0-0.2,0-0.2-0.1c-0.1-0.1-0.1-0.1-0.1-0.2v-7.8c0-0.1,0-0.2,0.1-0.2s0.1-0.1,0.2-0.1h1.5 c0.1,0,0.2,0,0.2,0.1s0.1,0.1,0.1,0.2V22l3.4-4.9c0-0.1,0.1-0.1,0.2-0.2s0.1-0.1,0.3-0.1h1.4c0.1,0,0.1,0,0.2,0.1s0.1,0.1,0.1,0.2 v7.8c0,0.1,0,0.1-0.1,0.2s-0.1,0.1-0.2,0.1h-1.5c-0.1,0-0.2,0-0.2-0.1s-0.1-0.1-0.1-0.2v-4.7L19.9,25c0,0-0.1,0.1-0.1,0.1 c-0.1,0.1-0.1,0.1-0.3,0.1H18.1z"></path>
    <path d="M26.6,25.2c-0.1,0-0.1,0-0.2-0.1c-0.1-0.1-0.1-0.1-0.1-0.2c0,0,0-0.1,0-0.1l2.8-7.7c0-0.1,0.1-0.2,0.1-0.2 s0.2-0.1,0.3-0.1h1.8c0.1,0,0.2,0,0.3,0.1s0.1,0.1,0.1,0.2l2.8,7.7c0,0,0,0.1,0,0.1c0,0.1,0,0.1-0.1,0.2c-0.1,0.1-0.1,0.1-0.2,0.1 H33c-0.1,0-0.2,0-0.3-0.1S32.7,25,32.6,25l-0.5-1.2H29L28.5,25c0,0-0.1,0.1-0.1,0.2c-0.1,0.1-0.2,0.1-0.3,0.1H26.6z M29.5,22h2.2 l-1.1-3.2L29.5,22z"></path>
    <path d="M42,26.9c-0.1,0-0.2,0-0.2-0.1s-0.1-0.1-0.1-0.2v-1.4H36c-0.1,0-0.2,0-0.2-0.1c-0.1-0.1-0.1-0.1-0.1-0.2 v-7.8c0-0.1,0-0.2,0.1-0.2c0.1-0.1,0.1-0.1,0.2-0.1h1.5c0.1,0,0.2,0,0.2,0.1s0.1,0.1,0.1,0.2v6.2h3v-6.2c0-0.1,0-0.2,0.1-0.2 c0.1-0.1,0.1-0.1,0.2-0.1h1.5c0.1,0,0.2,0,0.2,0.1C42.9,17,43,17,43,17.1v6.2h0.6c0.1,0,0.2,0,0.2,0.1c0.1,0.1,0.1,0.1,0.1,0.2v3 c0,0.1,0,0.1-0.1,0.2c-0.1,0.1-0.1,0.1-0.2,0.1H42z"></path>
    <path d="M45.4,25.2c-0.1,0-0.2,0-0.2-0.1c-0.1-0.1-0.1-0.1-0.1-0.2v-7.8c0-0.1,0-0.2,0.1-0.2s0.1-0.1,0.2-0.1h1.5 c0.1,0,0.2,0,0.2,0.1s0.1,0.1,0.1,0.2V22l3.4-4.9c0-0.1,0.1-0.1,0.2-0.2s0.1-0.1,0.3-0.1h1.4c0.1,0,0.1,0,0.2,0.1s0.1,0.1,0.1,0.2 v7.8c0,0.1,0,0.1-0.1,0.2s-0.1,0.1-0.2,0.1h-1.5c-0.1,0-0.2,0-0.2-0.1s-0.1-0.1-0.1-0.2v-4.7L47.2,25c0,0-0.1,0.1-0.1,0.1 c-0.1,0.1-0.1,0.1-0.3,0.1H45.4z"></path>
    <path d="M57.9,25.4c-0.7,0-1.4-0.1-1.9-0.4c-0.5-0.2-1-0.6-1.3-1.1c-0.3-0.5-0.5-1.1-0.5-1.8c0-0.3,0-0.7,0-1 c0-0.3,0-0.7,0-1c0-0.7,0.2-1.3,0.5-1.8c0.3-0.5,0.7-0.9,1.3-1.1c0.5-0.2,1.2-0.4,1.9-0.4c0.7,0,1.4,0.1,1.9,0.4 c0.5,0.2,1,0.6,1.3,1.1c0.3,0.5,0.5,1.1,0.5,1.8c0,0.3,0,0.7,0,1c0,0.3,0,0.7,0,1c0,0.7-0.2,1.3-0.5,1.8c-0.3,0.5-0.7,0.8-1.3,1.1 C59.2,25.2,58.6,25.4,57.9,25.4z M57.9,23.6c0.4,0,0.8-0.1,1-0.4c0.3-0.3,0.4-0.7,0.4-1.2c0-0.4,0-0.7,0-1s0-0.6,0-1 c0-0.4-0.1-0.7-0.2-0.9c-0.1-0.2-0.3-0.4-0.5-0.5c-0.2-0.1-0.5-0.2-0.7-0.2c-0.3,0-0.5,0.1-0.7,0.2c-0.2,0.1-0.4,0.3-0.5,0.5 c-0.1,0.2-0.2,0.5-0.2,0.9c0,0.3,0,0.7,0,1s0,0.6,0,1c0,0.6,0.2,1,0.4,1.2C57.1,23.5,57.4,23.6,57.9,23.6z"></path>
    <path d="M63.3,25.2c-0.1,0-0.2,0-0.2-0.1C63,25.1,63,25,63,24.9v-7.8c0-0.1,0-0.2,0.1-0.2c0.1-0.1,0.1-0.1,0.2-0.1 h1.5c0.1,0,0.2,0,0.2,0.1s0.1,0.1,0.1,0.2V20h3v-2.9c0-0.1,0-0.2,0.1-0.2c0.1-0.1,0.1-0.1,0.2-0.1h1.5c0.1,0,0.2,0,0.2,0.1 c0.1,0.1,0.1,0.1,0.1,0.2v7.8c0,0.1,0,0.1-0.1,0.2c-0.1,0.1-0.1,0.1-0.2,0.1h-1.5c-0.1,0-0.2,0-0.2-0.1c-0.1-0.1-0.1-0.1-0.1-0.2 v-3h-3v3c0,0.1,0,0.1-0.1,0.2s-0.1,0.1-0.2,0.1H63.3z"></path>
    <path d="M72.2,25.2c-0.1,0-0.2,0-0.2-0.1c-0.1-0.1-0.1-0.1-0.1-0.2v-7.8c0-0.1,0-0.2,0.1-0.2 c0.1-0.1,0.1-0.1,0.2-0.1h1.5c0.1,0,0.2,0,0.2,0.1s0.1,0.1,0.1,0.2V20h3v-2.9c0-0.1,0-0.2,0.1-0.2c0.1-0.1,0.1-0.1,0.2-0.1h1.5 c0.1,0,0.2,0,0.2,0.1c0.1,0.1,0.1,0.1,0.1,0.2v7.8c0,0.1,0,0.1-0.1,0.2c-0.1,0.1-0.1,0.1-0.2,0.1h-1.5c-0.1,0-0.2,0-0.2-0.1 C77,25.1,77,25,77,24.9v-3h-3v3c0,0.1,0,0.1-0.1,0.2s-0.1,0.1-0.2,0.1H72.2z"></path>
    <path d="M81.1,25.2c-0.1,0-0.2,0-0.2-0.1c-0.1-0.1-0.1-0.1-0.1-0.2v-7.8c0-0.1,0-0.2,0.1-0.2 c0.1-0.1,0.1-0.1,0.2-0.1h1.5c0.1,0,0.2,0,0.2,0.1S83,17,83,17.1v2.6h1.1c1,0,1.8,0.2,2.4,0.7c0.6,0.5,0.9,1.1,0.9,2 c0,0.6-0.1,1-0.4,1.5c-0.2,0.4-0.6,0.8-1.1,1c-0.5,0.2-1.1,0.3-1.8,0.3H81.1z M83,23.6h1.1c0.3,0,0.6-0.1,0.8-0.3 c0.2-0.2,0.3-0.5,0.3-0.8c0-0.4-0.1-0.6-0.3-0.8c-0.2-0.2-0.4-0.3-0.8-0.3H83V23.6z M88.6,25.2c-0.1,0-0.2,0-0.2-0.1 c-0.1-0.1-0.1-0.1-0.1-0.2v-7.8c0-0.1,0-0.2,0.1-0.2c0.1-0.1,0.1-0.1,0.2-0.1h1.6c0.1,0,0.2,0,0.2,0.1s0.1,0.1,0.1,0.2v7.8 c0,0.1,0,0.1-0.1,0.2s-0.1,0.1-0.2,0.1H88.6z"></path>
    <path d="M92.5,25.2c-0.1,0-0.2,0-0.2-0.1c-0.1-0.1-0.1-0.1-0.1-0.2v-7.8c0-0.1,0-0.2,0.1-0.2s0.1-0.1,0.2-0.1H94 c0.1,0,0.2,0,0.2,0.1s0.1,0.1,0.1,0.2V22l3.4-4.9c0-0.1,0.1-0.1,0.2-0.2s0.1-0.1,0.3-0.1h1.4c0.1,0,0.1,0,0.2,0.1s0.1,0.1,0.1,0.2 v7.8c0,0.1,0,0.1-0.1,0.2s-0.1,0.1-0.2,0.1H98c-0.1,0-0.2,0-0.2-0.1s-0.1-0.1-0.1-0.2v-4.7L94.3,25c0,0-0.1,0.1-0.1,0.1 c-0.1,0.1-0.1,0.1-0.3,0.1H92.5z M96,16.3c-0.5,0-0.9-0.1-1.2-0.2c-0.3-0.2-0.5-0.4-0.7-0.6c-0.1-0.3-0.2-0.5-0.2-0.9 c0-0.1,0-0.1,0.1-0.2s0.1-0.1,0.2-0.1h1c0.1,0,0.1,0,0.2,0.1c0,0,0.1,0.1,0.1,0.2c0,0.1,0,0.2,0.1,0.3s0.1,0.2,0.2,0.2 s0.2,0.1,0.4,0.1c0.2,0,0.3,0,0.4-0.1c0.1-0.1,0.2-0.1,0.2-0.2s0.1-0.2,0.1-0.3c0-0.1,0-0.1,0.1-0.2s0.1-0.1,0.2-0.1h1 c0.1,0,0.1,0,0.2,0.1s0.1,0.1,0.1,0.2c0,0.3-0.1,0.6-0.2,0.9c-0.1,0.3-0.4,0.5-0.7,0.6C97,16.3,96.6,16.3,96,16.3z"></path>
    <path d="M1,39.6c-0.1,0-0.2,0-0.2-0.1c-0.1-0.1-0.1-0.1-0.1-0.2v-7.8c0-0.1,0-0.2,0.1-0.2S1,31.2,1,31.2h1.5 c0.1,0,0.2,0,0.2,0.1s0.1,0.1,0.1,0.2v4.8l3.4-4.9c0-0.1,0.1-0.1,0.2-0.2s0.1-0.1,0.3-0.1h1.4c0.1,0,0.1,0,0.2,0.1s0.1,0.1,0.1,0.2 v7.8c0,0.1,0,0.1-0.1,0.2s-0.1,0.1-0.2,0.1H6.6c-0.1,0-0.2,0-0.2-0.1s-0.1-0.1-0.1-0.2v-4.7l-3.4,4.7c0,0-0.1,0.1-0.1,0.1 c-0.1,0.1-0.1,0.1-0.3,0.1H1z"></path>
    <path d="M10.4,39.6c-0.1,0-0.2,0-0.2-0.1c-0.1-0.1-0.1-0.1-0.1-0.2v-7.8c0-0.1,0-0.2,0.1-0.2 c0.1-0.1,0.1-0.1,0.2-0.1h1.5c0.1,0,0.2,0,0.2,0.1s0.1,0.1,0.1,0.2v2.9h3v-2.9c0-0.1,0-0.2,0.1-0.2c0.1-0.1,0.1-0.1,0.2-0.1H17 c0.1,0,0.2,0,0.2,0.1c0.1,0.1,0.1,0.1,0.1,0.2v7.8c0,0.1,0,0.1-0.1,0.2c-0.1,0.1-0.1,0.1-0.2,0.1h-1.5c-0.1,0-0.2,0-0.2-0.1 c-0.1-0.1-0.1-0.1-0.1-0.2v-3h-3v3c0,0.1,0,0.1-0.1,0.2s-0.1,0.1-0.2,0.1H10.4z"></path>
    <path d="M22.5,39.8c-0.8,0-1.4-0.1-1.9-0.4s-1-0.6-1.3-1.1c-0.3-0.5-0.5-1.1-0.5-1.8c0-0.3,0-0.7,0-1.1s0-0.7,0-1.1 c0-0.7,0.2-1.3,0.5-1.8c0.3-0.5,0.7-0.9,1.3-1.1s1.2-0.4,1.9-0.4c0.5,0,1,0.1,1.5,0.2c0.4,0.1,0.8,0.3,1.2,0.6s0.6,0.6,0.8,0.9 s0.3,0.8,0.3,1.2c0,0.1,0,0.1-0.1,0.2c-0.1,0-0.1,0.1-0.2,0.1h-1.6c-0.1,0-0.2,0-0.2-0.1c-0.1,0-0.1-0.1-0.1-0.2 c-0.1-0.4-0.3-0.7-0.5-0.9c-0.3-0.2-0.6-0.2-0.9-0.2c-0.4,0-0.8,0.1-1,0.4c-0.3,0.2-0.4,0.6-0.4,1.2c0,0.7,0,1.3,0,2 c0,0.6,0.2,1,0.4,1.2c0.3,0.2,0.6,0.4,1,0.4c0.4,0,0.7-0.1,0.9-0.2c0.3-0.2,0.4-0.4,0.5-0.9c0-0.1,0.1-0.2,0.1-0.2 c0.1,0,0.1-0.1,0.2-0.1h1.6c0.1,0,0.1,0,0.2,0.1c0.1,0,0.1,0.1,0.1,0.2c0,0.4-0.1,0.9-0.3,1.2s-0.5,0.7-0.8,0.9s-0.7,0.4-1.2,0.6 C23.5,39.7,23,39.8,22.5,39.8z"></path>
    <path d="M29.6,39.6c-0.1,0-0.2,0-0.2-0.1c-0.1-0.1-0.1-0.1-0.1-0.2v-6.2h-2.1c-0.1,0-0.2,0-0.2-0.1 s-0.1-0.1-0.1-0.2v-1.3c0-0.1,0-0.2,0.1-0.2s0.1-0.1,0.2-0.1h6.5c0.1,0,0.2,0,0.2,0.1c0.1,0.1,0.1,0.1,0.1,0.2v1.3 c0,0.1,0,0.1-0.1,0.2c-0.1,0.1-0.1,0.1-0.2,0.1h-2.1v6.2c0,0.1,0,0.1-0.1,0.2c-0.1,0.1-0.1,0.1-0.2,0.1H29.6z"></path>
    <path d="M35.3,39.6c-0.1,0-0.2,0-0.2-0.1C35,39.5,35,39.4,35,39.3v-7.8c0-0.1,0-0.2,0.1-0.2s0.1-0.1,0.2-0.1h1.5 c0.1,0,0.2,0,0.2,0.1s0.1,0.1,0.1,0.2v4.8l3.4-4.9c0-0.1,0.1-0.1,0.2-0.2s0.1-0.1,0.3-0.1h1.4c0.1,0,0.1,0,0.2,0.1s0.1,0.1,0.1,0.2 v7.8c0,0.1,0,0.1-0.1,0.2s-0.1,0.1-0.2,0.1h-1.5c-0.1,0-0.2,0-0.2-0.1s-0.1-0.1-0.1-0.2v-4.7l-3.4,4.7c0,0-0.1,0.1-0.1,0.1 c-0.1,0.1-0.1,0.1-0.3,0.1H35.3z"></path>
    <path d="M46.5,39.6c-0.1,0-0.2,0-0.2-0.1c-0.1-0.1-0.1-0.1-0.1-0.2v-6.2h-2.1c-0.1,0-0.2,0-0.2-0.1 s-0.1-0.1-0.1-0.2v-1.3c0-0.1,0-0.2,0.1-0.2s0.1-0.1,0.2-0.1h6.5c0.1,0,0.2,0,0.2,0.1c0.1,0.1,0.1,0.1,0.1,0.2v1.3 c0,0.1,0,0.1-0.1,0.2c-0.1,0.1-0.1,0.1-0.2,0.1h-2.1v6.2c0,0.1,0,0.1-0.1,0.2c-0.1,0.1-0.1,0.1-0.2,0.1H46.5z"></path>
    <path d="M54.4,37.5l-3.2-5.9c0,0,0-0.1,0-0.1c0-0.1,0-0.1,0.1-0.2s0.1-0.1,0.2-0.1h1.7c0.1,0,0.2,0,0.2,0.1 c0.1,0,0.1,0.1,0.1,0.2l2,3.9L54.4,37.5z M52.7,39.6c-0.1,0-0.2,0-0.2-0.1s-0.1-0.1-0.1-0.2v-1.3c0-0.1,0-0.2,0.1-0.2 c0.1-0.1,0.1-0.1,0.2-0.1h0.5c0.2,0,0.4,0,0.6-0.1s0.3-0.2,0.4-0.4s0.2-0.4,0.4-0.7l2.2-5.1c0-0.1,0.1-0.2,0.1-0.2s0.1-0.1,0.2-0.1 h1.6c0.1,0,0.1,0,0.2,0.1c0.1,0.1,0.1,0.1,0.1,0.2c0,0,0,0.1,0,0.1c0,0,0,0.1,0,0.1l-2.4,5.5c-0.2,0.5-0.4,0.8-0.6,1.2 c-0.2,0.3-0.4,0.6-0.6,0.8c-0.2,0.2-0.5,0.3-0.8,0.4c-0.3,0.1-0.7,0.1-1.1,0.1H52.7z"></path>
    <path d="M61.8,39.6c-0.1,0-0.2,0-0.2-0.1c-0.1-0.1-0.1-0.1-0.1-0.2v-6.2h-2.1c-0.1,0-0.2,0-0.2-0.1 s-0.1-0.1-0.1-0.2v-1.3c0-0.1,0-0.2,0.1-0.2s0.1-0.1,0.2-0.1h6.5c0.1,0,0.2,0,0.2,0.1c0.1,0.1,0.1,0.1,0.1,0.2v1.3 c0,0.1,0,0.1-0.1,0.2c-0.1,0.1-0.1,0.1-0.2,0.1h-2.1v6.2c0,0.1,0,0.1-0.1,0.2c-0.1,0.1-0.1,0.1-0.2,0.1H61.8z">
</path>
</g>
</svg>